HIERARCHY
ROOT Hips
{
  OFFSET 51.8783 97.2629 35.53
  CHANNELS 6 Xposition Yposition Zposition Zrotation Xrotation Yrotation
  JOINT spine
  {
    OFFSET 0 7.96568 0.458067
    CHANNELS 3 Zrotation Xrotation Yrotation
    JOINT spine1
    {
      OFFSET 0 10.2431 0
      CHANNELS 3 Zrotation Xrotation Yrotation
      JOINT spine2
      {
        OFFSET 0 9.81475 0
        CHANNELS 3 Zrotation Xrotation Yrotation
        JOINT Neck
        {
          OFFSET 0 25.1986 1.20138
          CHANNELS 3 Zrotation Xrotation Yrotation
          JOINT Head
          {
            OFFSET 0 7.61315 0
            CHANNELS 3 Zrotation Xrotation Yrotation
            End Site
            {
              OFFSET 0 18.4281 -6.07733
            }
          }
        }
        JOINT RightShoulder
        {
          OFFSET -4.1327 10.5992 -0.575451
          CHANNELS 3 Zrotation Xrotation Yrotation
          JOINT RightArm
          {
            OFFSET 0 13.9018 0
            CHANNELS 3 Zrotation Xrotation Yrotation
            JOINT RightArmRoll
            {
              OFFSET 0 7.01789 0
              CHANNELS 3 Zrotation Xrotation Yrotation
              JOINT RightForeArm
              {
                OFFSET 0 20.4406 0
                CHANNELS 3 Zrotation Xrotation Yrotation
                JOINT RightForeArmRoll
                {
                  OFFSET 0 7.87516 0
                  CHANNELS 3 Zrotation Xrotation Yrotation
                  JOINT RightHand
                  {
                    OFFSET 0 15.8037 0
                    CHANNELS 3 Zrotation Xrotation Yrotation
                    End Site
                    {
                      OFFSET 0 0 0
                    }
                  }
                }
              }
            }
          }
        }
        JOINT LeftShoulder
        {
          OFFSET 4.1327 10.5992 -0.575451
          CHANNELS 3 Zrotation Xrotation Yrotation
          JOINT LeftArm
          {
            OFFSET 0 13.9018 0
            CHANNELS 3 Zrotation Xrotation Yrotation
            JOINT LeftArmRoll
            {
              OFFSET 0 7.01788 0
              CHANNELS 3 Zrotation Xrotation Yrotation
              JOINT LeftForeArm
              {
                OFFSET 0 20.4406 0
                CHANNELS 3 Zrotation Xrotation Yrotation
                JOINT LeftForeArmRoll
                {
                  OFFSET 0 7.87515 0
                  CHANNELS 3 Zrotation Xrotation Yrotation
                  JOINT LeftHand
                  {
                    OFFSET 0 15.8037 0
                    CHANNELS 3 Zrotation Xrotation Yrotation
                    End Site
                    {
                      OFFSET 0 0 0
                    }
                  }
                }
              }
            }
          }
        }
      }
    }
  }
  JOINT RightUpLeg
  {
    OFFSET -7.06048 -1.2947 -1.0861
    CHANNELS 3 Zrotation Xrotation Yrotation
    JOINT RightUpLegRoll
    {
      OFFSET 0 18.5308 0
      CHANNELS 3 Zrotation Xrotation Yrotation
      JOINT RightLeg
      {
        OFFSET 0 -22.9476 0
        CHANNELS 3 Zrotation Xrotation Yrotation
        JOINT RightLegRoll
        {
          OFFSET 0 23.0226 0
          CHANNELS 3 Zrotation Xrotation Yrotation
          JOINT RightFoot
          {
            OFFSET 0 19.1625 0
            CHANNELS 3 Zrotation Xrotation Yrotation
            JOINT RightToeBase
            {
              OFFSET 0 16.0188 0
              CHANNELS 3 Zrotation Xrotation Yrotation
              End Site
              {
                OFFSET 0.00678979 7.75782 -0.894207
              }
            }
          }
        }
      }
    }
  }
  JOINT LeftUpLeg
  {
    OFFSET 7.06048 -1.2947 -1.0861
    CHANNELS 3 Zrotation Xrotation Yrotation
    JOINT LeftUpLegRoll
    {
      OFFSET 0 18.5309 0
      CHANNELS 3 Zrotation Xrotation Yrotation
      JOINT LeftLeg
      {
        OFFSET 0 22.9475 0
        CHANNELS 3 Zrotation Xrotation Yrotation
        JOINT LeftLegRoll
        {
          OFFSET 0 23.2355 0
          CHANNELS 3 Zrotation Xrotation Yrotation
          JOINT LeftFoot
          {
            OFFSET 0 18.9496 0
            CHANNELS 3 Zrotation Xrotation Yrotation
            JOINT LeftToeBase
            {
              OFFSET 0 16.0188 0
              CHANNELS 3 Zrotation Xrotation Yrotation
              End Site
              {
                OFFSET -0.0304289 7.75782 -0.894207
              }
            }
          }
        }
      }
    }
  }
}
MOTION
Frames: 6
Frame Time: 0.00208333
51.6616 54.2071 -3.04412 -0.468339 -13.385 2.53574 0.313955 4.50351 -0.622042 0.702231 13.0059 -1.33266 0.721546 14.6507 -1.34892 -10.1558 -5.89826 3.41477 8.91805 33.4308 0.624714 53.5636 -3.91669 -2.00646 124.654 35.2199 -28.4117 3.39544e-006 1.60077e-006 8.38563e-007 16.4665 61.0953 -13.2741 -6.65992e-006 5.2644e-006 -2.99999 8.02924 -4.9516 0.697671 -61.2073 -12.2923 7.6121 -104.796 37.2247 56.3544 -1.74931e-014 3.02153e-014 3.18055e-015 -46.3399 77.8768 45.3151 7.36795e-006 -2.38465e-006 3.00002 -8.02919 -4.951 -0.697533 143.022 75.4488 35.4131 -180 7.01455e-015 178.577 -114.597 85.1689 115.801 -1.96685e-006 -3.53242e-006 1.7444 -16.8476 64.7132 17.1065 8.12224 25.2335 -3.48166 -144.914 77.1419 -33.9164 4.54188e-006 -4.6773e-006 -1.39082 52.5104 -85.5262 51.7732 -1.6134e-006 -4.95199e-006 -1.88767 16.0777 62.8067 -15.9801 -8.12606 25.2332 3.48329 
51.6616 54.2087 -3.04589 -0.467886 -13.3835 2.53676 0.313948 4.50384 -0.622654 0.701945 13.0065 -1.33303 0.721275 14.6514 -1.34929 -10.1708 -5.88483 3.41964 8.96015 33.4291 0.618353 53.5518 -3.91827 -2.00656 124.672 35.2183 -28.4029 3.39544e-006 1.60077e-006 8.38563e-007 16.4572 61.0925 -13.2677 -6.65992e-006 5.2644e-006 -2.99999 8.02924 -4.9516 0.697671 -61.2189 -12.2835 7.60651 -104.829 37.1799 56.2693 -0 0 9.54166e-015 -46.2809 77.8833 45.2707 7.36795e-006 -2.38465e-006 3.00002 -8.02919 -4.951 -0.697533 143.025 75.4497 35.4088 -180 7.01455e-015 178.577 -114.615 85.1676 115.819 -1.96685e-006 -3.53242e-006 1.74444 -16.8479 64.7138 17.1066 8.12224 25.2335 -3.48166 -144.914 77.1455 -33.9155 4.54188e-006 -4.6773e-006 -1.39088 52.5113 -85.5264 51.7731 -1.6134e-006 -4.95199e-006 -1.88768 16.0774 62.8062 -15.9798 -8.12606 25.2332 3.48329 
51.6516 54.1836 -3.01703 -0.46739 -13.3822 2.53776 0.313939 4.50419 -0.623297 0.70165 13.0072 -1.33344 0.720996 14.6521 -1.34968 -10.1868 -5.87177 3.42486 9.00451 33.4277 0.611782 53.54 -3.91979 -2.00663 124.689 35.2172 -28.3938 3.39544e-006 1.60077e-006 8.38563e-007 16.4475 61.089 -13.2609 -6.65992e-006 5.2644e-006 -2.99999 8.02924 -4.9516 0.697671 -61.2304 -12.2746 7.60088 -104.862 37.1358 56.1856 1.59028e-015 -1.59028e-015 6.36111e-015 -46.221 77.8888 45.2247 7.36795e-006 -2.38465e-006 3.00002 -8.02919 -4.951 -0.697533 143.027 75.4503 35.4045 -180 7.01455e-015 178.577 -114.634 85.1665 115.838 -1.96685e-006 -3.53242e-006 1.7445 -16.8481 64.7144 17.1066 8.12224 25.2335 -3.48166 -144.915 77.149 -33.9143 4.54188e-006 -4.6773e-006 -1.39096 52.5127 -85.5268 51.7734 -1.6134e-006 -4.95199e-006 -1.88769 16.0771 62.8058 -15.9796 -8.12606 25.2332 3.48329 
51.6559 54.1937 -3.02861 -0.466863 -13.381 2.53873 0.313927 4.50456 -0.623961 0.701348 13.008 -1.33386 0.720711 14.6528 -1.3501 -10.2035 -5.85895 3.43034 9.05044 33.4267 0.605063 53.5282 -3.92128 -2.00668 124.707 35.2163 -28.3843 3.39544e-006 1.60077e-006 8.38563e-007 16.4377 61.0848 -13.2537 -6.65992e-006 5.2644e-006 -2.99999 8.02924 -4.9516 0.697671 -61.242 -12.2656 7.59521 -104.896 37.0921 56.1029 4.77083e-015 6.36111e-015 1.27222e-014 -46.1604 77.8935 45.1776 7.36795e-006 -2.38465e-006 3.00002 -8.02919 -4.951 -0.697533 143.03 75.4507 35.4001 -180 7.01455e-015 178.577 -114.653 85.1654 115.858 -1.96685e-006 -3.53242e-006 1.74457 -16.8483 64.7149 17.1066 8.12224 25.2335 -3.48166 -144.916 77.1524 -33.913 4.54188e-006 -4.6773e-006 -1.39105 52.5145 -85.5271 51.7741 -1.6134e-006 -4.95199e-006 -1.8877 16.0768 62.8054 -15.9794 -8.12606 25.2332 3.48329 
51.6613 54.2027 -3.04435 -0.46632 -13.3799 2.5397 0.313914 4.50495 -0.624637 0.701043 13.0087 -1.3343 0.720422 14.6536 -1.35053 -10.2207 -5.84628 3.43596 9.09728 33.4258 0.59826 53.5163 -3.92274 -2.00671 124.725 35.2156 -28.3746 3.39544e-006 1.60077e-006 8.38563e-007 16.4277 61.0803 -13.2465 -6.65992e-006 5.2644e-006 -2.99999 8.02924 -4.9516 0.697671 -61.2535 -12.2567 7.58953 -104.93 37.0485 56.0208 4.77083e-015 1.59028e-015 3.18055e-015 -46.0995 77.8977 45.1297 7.36795e-006 -2.38465e-006 3.00002 -8.02919 -4.951 -0.697533 143.032 75.4509 35.3958 -180 7.01455e-015 178.577 -114.672 85.1643 115.877 -1.96685e-006 -3.53242e-006 1.74466 -16.8484 64.7153 17.1065 8.12224 25.2335 -3.48166 -144.917 77.1557 -33.9116 4.54188e-006 -4.6773e-006 -1.39116 52.5164 -85.5275 51.7749 -1.6134e-006 -4.95199e-006 -1.88772 16.0765 62.805 -15.9793 -8.12606 25.2332 3.48329 
51.6602 54.1979 -3.03686 -0.465771 -13.3788 2.54066 0.3139 4.50533 -0.625316 0.700737 13.0095 -1.33474 0.720133 14.6544 -1.35096 -10.238 -5.83364 3.44161 9.14434 33.4249 0.591436 53.5045 -3.92419 -2.00673 124.743 35.215 -28.365 3.39544e-006 1.60077e-006 8.38563e-007 16.4177 61.0758 -13.2392 -6.65992e-006 5.2644e-006 -2.99999 8.02924 -4.9516 0.697671 -61.2651 -12.2477 7.58384 -104.965 37.0049 55.9389 -2.8625e-014 2.54444e-014 9.54166e-015 -46.0385 77.9018 45.0817 7.36795e-006 -2.38465e-006 3.00002 -8.02919 -4.951 -0.697533 143.035 75.451 35.3915 -180 7.01455e-015 178.577 -114.692 85.1633 115.897 -1.96685e-006 -3.53242e-006 1.74474 -16.8484 64.7158 17.1063 8.12224 25.2335 -3.48166 -144.918 77.1589 -33.9101 4.54188e-006 -4.6773e-006 -1.39127 52.5184 -85.5279 51.7758 -1.6134e-006 -4.95199e-006 -1.88773 16.0762 62.8047 -15.9791 -8.12606 25.2332 3.48329 
